<svg xmlns="http://www.w3.org/2000/svg" width="2000" height="2000" viewBox="0 0 2000 2000" version="1.1">
	<path d="M 930.500 187.594 C 921.150 188.916, 904.988 191.122, 894.585 192.497 C 884.182 193.872, 875.554 195.112, 875.413 195.254 C 875.272 195.395, 876.208 204.733, 877.493 216.005 C 878.778 227.277, 880.587 243.250, 881.513 251.500 C 882.439 259.750, 884.198 275.275, 885.422 286 L 887.648 305.500 894.074 305.194 C 901.612 304.834, 965.733 296.600, 966.431 295.902 C 967.019 295.314, 964.490 279.156, 963.684 278.351 C 963.364 278.030, 957.116 278.517, 949.801 279.433 C 922 282.912, 907.990 284.323, 907.374 283.708 C 906.834 283.167, 904.176 262.627, 904.044 257.966 C 904.008 256.716, 908.563 255.800, 928.586 253.029 L 953.171 249.626 952.608 245.563 C 952.298 243.328, 951.750 239.128, 951.390 236.229 C 950.739 230.978, 950.726 230.961, 947.618 231.511 C 935.090 233.731, 902.413 237.809, 901.846 237.223 C 901.046 236.395, 898.491 212.175, 899.137 211.530 C 899.370 211.296, 911.472 209.454, 926.031 207.437 C 940.589 205.419, 952.600 203.683, 952.721 203.579 C 952.843 203.476, 952.433 199.253, 951.810 194.195 C 950.907 186.858, 950.357 185.019, 949.089 185.096 C 948.215 185.149, 939.850 186.273, 930.500 187.594 M 1144 188.648 C 1128.027 191.044, 1118.285 195.145, 1109.502 203.172 C 1096.566 214.995, 1089.728 230.641, 1089.691 248.500 C 1089.615 285.922, 1124.213 312.163, 1163.754 304.672 C 1171.979 303.114, 1183.043 298.858, 1185.001 296.499 C 1186.012 295.281, 1194.154 251.824, 1193.496 251.163 C 1193.311 250.978, 1188.962 249.943, 1183.830 248.863 C 1178.699 247.783, 1169.174 245.760, 1162.664 244.368 C 1156.155 242.976, 1150.585 242.082, 1150.286 242.381 C 1149.799 242.868, 1146.027 257.618, 1146.008 259.111 C 1146.004 259.447, 1151.400 260.729, 1158 261.959 C 1171.700 264.513, 1170.816 263.351, 1168.578 275.860 C 1167.062 284.333, 1166.881 284.502, 1157.608 286.066 C 1140.437 288.962, 1121.597 280.311, 1115.135 266.564 C 1107.211 249.707, 1113.430 225.368, 1128.269 215.159 C 1143.569 204.634, 1164.584 208.129, 1175.512 223.017 L 1179.087 227.886 1184.931 224.461 C 1188.145 222.577, 1191.951 220.589, 1193.388 220.043 C 1196.726 218.774, 1196.672 217.722, 1192.972 211.956 C 1183.317 196.910, 1160.697 186.144, 1144 188.648 M 800.500 210.033 C 797.353 211.432, 734.549 231, 733.205 231 C 731.125 231, 731.792 233.944, 740.012 261.065 C 744.418 275.604, 751.463 298.975, 755.668 313 C 759.873 327.025, 763.465 338.685, 763.651 338.911 C 763.837 339.138, 777.829 335.009, 794.745 329.735 C 811.660 324.462, 828.799 319.185, 832.831 318.007 C 838.511 316.349, 840.031 315.523, 839.578 314.343 C 839.256 313.505, 837.982 309.489, 836.747 305.419 C 835.511 301.349, 834.050 298.018, 833.500 298.018 C 832.950 298.018, 821.025 301.632, 807 306.050 C 792.975 310.468, 780.852 314.177, 780.059 314.291 C 778.568 314.507, 770.583 290.652, 771.403 288.432 C 771.620 287.844, 782.023 284.027, 794.519 279.949 C 807.016 275.872, 817.441 272.015, 817.685 271.380 C 818.336 269.682, 813.673 254.996, 812.500 255.050 C 811.950 255.075, 801.188 258.450, 788.585 262.549 C 775.982 266.649, 765.475 269.808, 765.237 269.570 C 764.289 268.622, 757.962 244.705, 758.513 244.154 C 758.838 243.829, 770.443 239.898, 784.302 235.419 C 802.766 229.451, 809.396 226.903, 809.111 225.887 C 804.401 209.108, 804.047 208.455, 800.500 210.033 M 1293.928 248.750 C 1267.637 275.522, 1225.505 319.189, 1225.209 319.973 C 1225.050 320.397, 1229.479 322.560, 1235.052 324.780 C 1244.654 328.604, 1245.271 328.724, 1246.842 327.073 C 1247.754 326.115, 1251.998 321.697, 1256.274 317.256 L 1264.047 309.181 1286.274 318.346 L 1308.500 327.512 1308.778 340.551 L 1309.055 353.591 1317.778 356.860 C 1322.575 358.658, 1327.287 360.377, 1328.250 360.681 C 1330.210 361.299, 1330.423 339.764, 1329.116 273.069 L 1328.500 241.639 1319.072 237.819 C 1313.886 235.719, 1309.367 234, 1309.029 234 C 1308.690 234, 1301.895 240.637, 1293.928 248.750 M 666.450 257.854 C 665.546 258.666, 656.250 263.553, 619 282.797 C 609.925 287.485, 602.352 291.434, 602.170 291.574 C 601.861 291.810, 649.994 387.983, 651.827 390.793 C 652.474 391.784, 654.332 391.144, 659.805 388.043 C 663.728 385.819, 667.312 384, 667.769 384 C 671.576 384, 670.679 381.116, 660.976 362.157 C 655.489 351.437, 651.113 342.573, 651.250 342.458 C 651.388 342.344, 661.063 337.193, 672.750 331.012 C 684.438 324.830, 694 319.589, 694 319.364 C 694 318.941, 685.973 302.731, 685.501 302.200 C 685.218 301.882, 680.185 304.534, 657.143 317.143 C 649.246 321.465, 642.612 325, 642.400 325 C 641.829 325, 630 301.195, 630 300.046 C 630 299.504, 635.288 296.407, 641.750 293.164 C 648.212 289.920, 657.100 285.280, 661.500 282.853 C 665.900 280.425, 671.188 277.644, 673.250 276.673 C 677.800 274.529, 677.844 275.666, 672.817 265.478 C 668.566 256.862, 668.132 256.342, 666.450 257.854 M 1293.147 278.048 C 1284.702 286.755, 1277.960 294.381, 1278.165 294.995 C 1278.369 295.608, 1284.378 298.482, 1291.518 301.382 C 1298.658 304.282, 1305.453 307.166, 1306.619 307.792 C 1307.784 308.418, 1309.021 308.645, 1309.369 308.298 C 1310.270 307.396, 1310.154 261.978, 1309.250 262.108 C 1308.838 262.167, 1301.591 269.340, 1293.147 278.048 M 1419.196 298.774 C 1415.179 304.673, 1406.017 318.050, 1398.836 328.500 C 1370.966 369.057, 1364.894 378.280, 1365.325 379.404 C 1365.773 380.573, 1380.420 390.003, 1381.777 389.997 C 1382.175 389.995, 1387.419 382.785, 1393.431 373.974 C 1399.443 365.163, 1404.618 358.077, 1404.931 358.227 C 1405.244 358.377, 1408.804 360.731, 1412.843 363.459 L 1420.186 368.417 1419.868 392.453 L 1419.549 416.489 1428.525 422.194 C 1433.461 425.332, 1438.063 427.922, 1438.750 427.950 C 1439.718 427.989, 1440 422.382, 1440 403.111 L 1440 378.221 1448.370 378.744 C 1455.851 379.210, 1457.330 378.996, 1462.295 376.722 C 1486.084 365.832, 1490.951 335.732, 1471.719 318.436 C 1467.214 314.384, 1430.579 289.479, 1427.573 288.425 C 1426.983 288.218, 1423.213 292.875, 1419.196 298.774 M 1426.223 326.250 C 1421.858 332.438, 1417.510 338.717, 1416.559 340.204 L 1414.831 342.907 1424.665 349.317 C 1443.187 361.389, 1448.106 362.502, 1455.719 356.339 C 1465.033 348.802, 1465.477 338.463, 1456.835 330.381 C 1453.783 327.526, 1435.689 315, 1434.617 315 C 1434.365 315, 1430.587 320.063, 1426.223 326.250 M 513.327 346.309 C 497.832 357.964, 484.846 367.812, 484.468 368.192 C 484.091 368.573, 484.822 370.373, 486.094 372.192 C 494.323 383.962, 521.331 421.226, 531.978 435.500 C 538.953 444.850, 545.730 454.136, 547.039 456.135 L 549.420 459.770 557.210 453.840 C 561.494 450.579, 565 447.405, 565 446.787 C 565 446.169, 562.667 442.476, 559.815 438.582 C 548.558 423.206, 539.878 410.789, 540.181 410.493 C 540.787 409.902, 574.585 385.494, 577.007 383.899 L 579.437 382.298 574.469 374.662 C 571.736 370.462, 569.126 367.020, 568.668 367.013 C 568.211 367.006, 559.464 373.121, 549.232 380.603 C 538.999 388.085, 530.125 394.398, 529.512 394.634 C 528.482 395.029, 511.375 372.266, 512.153 371.534 C 512.667 371.050, 535.239 354.570, 544.750 347.735 C 549.288 344.474, 553 341.281, 553 340.640 C 553 338.735, 543.854 324.995, 542.629 325.059 C 542.008 325.092, 528.822 334.654, 513.327 346.309 M 1542.500 387.863 C 1537 393.717, 1520.350 411.254, 1505.500 426.835 C 1490.650 442.416, 1478.372 455.710, 1478.216 456.379 C 1477.799 458.159, 1512.671 492.162, 1518.255 495.421 C 1535.222 505.323, 1552.854 506.229, 1569.500 498.055 C 1600.837 482.665, 1612.156 445.949, 1594.053 418.406 C 1589.990 412.225, 1555.994 377.617, 1553.732 377.360 C 1553.054 377.283, 1548 382.009, 1542.500 387.863 M 1165 396.288 C 1158.583 402.370, 1142.786 414.794, 1134 420.670 C 1127.477 425.033, 1108.424 436, 1107.368 436 C 1105.204 436, 1062.439 458.576, 1053.816 464.271 C 1020.743 486.111, 992.303 517.764, 973.193 554 C 948.192 601.406, 942.572 656.154, 957.608 705.796 C 961.654 719.152, 971.113 745.008, 971.945 744.983 C 972.250 744.974, 977.358 730.237, 983.296 712.233 C 1005.194 645.838, 1029.091 601.269, 1067.870 554.500 C 1086.921 531.524, 1096.600 522.178, 1084.774 538.177 C 1048.767 586.892, 1017.445 647.627, 997.462 707.481 C 994.222 717.187, 989.022 729.968, 985.270 737.452 C 962.722 782.421, 952.052 827.851, 950.146 887 L 949.453 908.500 946.387 902 C 940.076 888.622, 929.287 873.116, 917.210 860.066 L 911.257 853.632 910.714 835.566 C 910.076 814.312, 908.413 804.305, 902.568 786.543 C 886.530 737.814, 849.534 698.639, 804 682.174 C 790.001 677.112, 781.700 675.176, 756 670.978 C 724.131 665.772, 716.221 663.970, 694.101 656.870 C 683.982 653.622, 675.471 651.196, 675.188 651.479 C 674.905 651.762, 677.647 658.632, 681.281 666.746 C 692.549 691.907, 697.141 705.019, 704.102 731.901 C 714.532 772.179, 725.949 795.481, 744.999 815.378 C 775.131 846.847, 810.630 861.101, 862.500 862.557 C 897.939 863.552, 904.707 866.689, 919.539 889 C 941.832 922.532, 954.355 965.782, 957.965 1021.700 C 959.928 1052.121, 960.048 1051.305, 954.960 1042.250 C 942.474 1020.025, 917.553 995.362, 895.500 983.407 C 887.232 978.925, 887.035 978.694, 887.015 973.432 C 886.928 950.131, 861.259 922.685, 832.359 914.993 C 808.639 908.679, 789.927 912.089, 757.143 928.699 C 747.047 933.815, 738.160 938, 737.393 938 C 734.521 938, 736.192 939.849, 742.285 943.412 C 751.040 948.532, 760.024 956.815, 767.192 966.374 C 782.993 987.446, 796.267 997.076, 815.734 1001.590 C 833.617 1005.738, 858.729 1001.144, 876.300 990.510 C 883.391 986.219, 884.336 986.193, 890.535 990.124 C 929.716 1014.972, 957.386 1064.305, 955.844 1106.562 L 955.500 1116.002 974.558 1116.001 L 993.616 1116 993.761 1105.098 C 994.098 1079.911, 1004.072 1059.003, 1026.875 1035.678 C 1031.619 1030.825, 1037.151 1025.529, 1039.169 1023.908 L 1042.838 1020.960 1050.194 1023.429 C 1070.620 1030.286, 1088.372 1025.982, 1103.682 1010.460 C 1110.134 1003.919, 1111.678 1001.509, 1118.880 986.746 C 1123.289 977.707, 1128.495 968.400, 1130.449 966.062 C 1132.402 963.724, 1134 961.679, 1134 961.518 C 1134 961.357, 1129.612 960.162, 1124.250 958.863 C 1079.367 947.986, 1036.571 973.741, 1039.197 1010.048 L 1039.640 1016.170 1033.885 1020.078 C 1020.312 1029.295, 1005.278 1044.702, 996.392 1058.500 L 992.528 1064.500 991.851 1059.500 C 990.521 1049.662, 990.947 1018.847, 992.543 1009.500 C 998.256 976.042, 1016.521 941.134, 1040.217 918.386 C 1057.266 902.020, 1066.490 899.808, 1098 904.532 C 1151.198 912.509, 1187.629 903.475, 1221.193 873.984 C 1228.801 867.300, 1241.080 851.760, 1251.763 835.299 C 1271.216 805.321, 1279.591 794.886, 1291.500 785.785 C 1298.643 780.326, 1315.905 771, 1318.866 771 C 1327.110 771, 1298.679 756.140, 1276 748.595 C 1165.151 711.718, 1058.225 776.008, 1045.524 887.171 L 1044.876 892.842 1035.950 900.433 C 1026.600 908.386, 1015.284 921.026, 1006.008 933.879 C 999.912 942.326, 985.176 968.353, 982.453 975.484 C 980.074 981.713, 979.240 981.879, 978.493 976.269 C 978.144 973.646, 977.025 965.650, 976.006 958.500 C 966.722 893.334, 968.266 829.334, 980.133 787.500 C 991.536 747.303, 996.566 739.071, 1015.164 730.176 C 1020.849 727.457, 1031.264 722.492, 1038.309 719.144 C 1116.461 682.001, 1165.686 614.553, 1174.096 533.092 C 1175.709 517.466, 1174.692 484.046, 1171.919 461.500 C 1169.682 443.317, 1168.790 404.262, 1170.415 395.603 C 1171.282 390.981, 1170.495 391.081, 1165 396.288 M 1545.667 415.700 C 1540.327 421.491, 1529.122 433.451, 1520.767 442.279 L 1505.575 458.329 1515.038 467.191 C 1527.580 478.937, 1534.553 482.500, 1545 482.500 C 1565.949 482.500, 1585.256 460.506, 1581.979 440.373 C 1580.472 431.111, 1574.381 422.293, 1561.438 410.633 L 1555.375 405.172 1545.667 415.700 M 411.233 435.904 C 370.246 450.171, 358.834 499.833, 389.492 530.515 C 415.710 556.754, 452.747 555.357, 476.233 527.243 C 512.402 483.946, 464.915 417.219, 411.233 435.904 M 423.176 454.109 C 397.214 458.982, 384.537 487.479, 398.989 508.483 C 405.893 518.519, 416.432 525.764, 427.369 527.994 C 449.805 532.569, 472.075 509.852, 467.022 487.546 C 462.361 466.970, 441.089 450.748, 423.176 454.109 M 1655 506.180 C 1648.125 511.222, 1632.150 523.049, 1619.500 532.463 C 1606.850 541.877, 1592.801 552.170, 1588.279 555.338 C 1583.758 558.505, 1579.803 561.510, 1579.490 562.016 C 1579.178 562.522, 1582.853 568.238, 1587.657 574.718 C 1592.462 581.198, 1601.774 594.150, 1608.351 603.500 C 1624.130 625.930, 1623.391 624.933, 1624.262 624.969 C 1625.743 625.030, 1639 615.691, 1638.976 614.603 C 1638.963 613.996, 1632.007 603.825, 1623.518 592 C 1615.030 580.175, 1608.091 569.825, 1608.097 569 C 1608.108 567.604, 1628.907 551.975, 1630.692 552.021 C 1631.136 552.032, 1633.153 554.620, 1635.174 557.771 C 1637.195 560.922, 1642.515 568.450, 1646.996 574.500 C 1651.478 580.550, 1655.884 586.737, 1656.788 588.250 C 1658.922 591.821, 1658.790 591.852, 1666.957 585.893 C 1672.653 581.737, 1673.787 580.470, 1673.046 579.086 C 1672.545 578.151, 1666.255 569.189, 1659.068 559.171 C 1651.881 549.153, 1646 540.594, 1646 540.151 C 1646 539.216, 1665.376 524.999, 1666.647 525.002 C 1667.116 525.003, 1668.175 526.096, 1669 527.432 C 1670.811 530.363, 1692.115 560.311, 1695.301 564.404 L 1697.561 567.308 1704.781 562.507 C 1708.751 559.867, 1712 557.321, 1712 556.849 C 1712 554.513, 1670.361 496.997, 1668.677 497.007 C 1668.029 497.011, 1661.875 501.139, 1655 506.180 M 315 560.394 C 293.968 566.278, 278.765 586.138, 277.251 609.708 C 275.396 638.582, 295.443 664.502, 325 671.444 C 358.503 679.313, 393.429 652.027, 393.409 618 C 393.404 609.672, 389.143 595.315, 385.439 591.146 C 385.089 590.752, 370.411 601.296, 365.105 605.753 L 361.711 608.605 366.855 612.301 C 371.633 615.733, 372 616.294, 372 620.160 C 372 635.758, 358.246 650.261, 342.062 651.728 C 326.850 653.107, 309.812 643.358, 301.882 628.737 C 297.373 620.422, 296.884 605.568, 300.871 598 C 306.513 587.289, 315.087 580.535, 324.801 579.149 L 329.500 578.479 329.775 568.739 L 330.050 559 324.775 559.067 C 321.874 559.105, 317.475 559.701, 315 560.394 M 1742.500 619.563 C 1739.750 620.906, 1726.700 627.230, 1713.500 633.615 C 1700.300 640.001, 1682.525 648.604, 1674 652.734 C 1665.475 656.864, 1656.577 661.077, 1654.227 662.096 L 1649.954 663.949 1654.593 673.224 C 1657.144 678.326, 1659.322 682.606, 1659.434 682.736 C 1659.546 682.865, 1674.979 675.553, 1693.729 666.486 C 1712.479 657.418, 1728.105 650, 1728.452 650 C 1728.800 650, 1727.999 651.913, 1726.672 654.250 C 1725.345 656.587, 1722.012 662.775, 1719.264 668 C 1716.517 673.225, 1707.630 690.032, 1699.515 705.349 L 1684.762 733.197 1689.043 742.349 C 1691.397 747.382, 1693.639 751.866, 1694.024 752.312 C 1694.409 752.759, 1716.210 742.522, 1742.469 729.562 C 1768.728 716.603, 1790.615 706, 1791.106 706 C 1791.598 706, 1792 705.388, 1792 704.640 C 1792 703.107, 1784.263 686, 1783.570 686 C 1783.324 686, 1767.795 693.578, 1749.061 702.839 C 1730.328 712.101, 1715 719.492, 1715 719.264 C 1715 719.036, 1716.734 715.845, 1718.854 712.174 C 1720.973 708.504, 1728.037 695.150, 1734.550 682.500 C 1741.063 669.850, 1748.122 656.350, 1750.236 652.500 C 1752.350 648.650, 1755.054 643.583, 1756.244 641.239 L 1758.409 636.978 1753.495 626.989 C 1750.791 621.495, 1748.337 617.027, 1748.040 617.061 C 1747.743 617.094, 1745.250 618.220, 1742.500 619.563 M 770.550 737.863 C 771.072 738.338, 776.450 742.048, 782.500 746.109 C 806.281 762.070, 828.077 780.688, 867.950 819.096 C 883.597 834.168, 896.083 845.672, 895.697 844.661 C 894.392 841.246, 876.085 815.555, 869.768 808.277 C 858.027 794.747, 837.612 777.426, 818 764.355 C 799.692 752.153, 764.893 732.724, 770.550 737.863 M 1191 802.682 C 1151.987 815.894, 1125.765 829.193, 1098.247 849.724 C 1086.980 858.131, 1065.835 877.614, 1061.747 883.356 L 1059.572 886.410 1064.230 883.807 C 1066.792 882.375, 1076.281 875.785, 1085.318 869.163 C 1128.290 837.673, 1157.992 819.533, 1188 806.452 C 1199.276 801.537, 1201.082 799.268, 1191 802.682 M 810.080 946.981 C 808.435 947.369, 810.705 948.232, 817.613 949.843 C 836.983 954.362, 867.460 967.772, 876.072 975.565 C 878.036 977.343, 879 977.391, 879 975.712 C 879 972.100, 863.768 960.526, 852.393 955.495 C 841.350 950.611, 816.167 945.544, 810.080 946.981 M 1083.940 984.325 C 1073.167 989.029, 1059.639 998.154, 1051.767 1006.026 C 1043.547 1014.247, 1042.366 1018.420, 1050.122 1011.843 C 1064.447 999.695, 1073.434 992.936, 1082.265 987.666 C 1090.520 982.740, 1093.075 980.947, 1091.750 981.012 C 1091.612 981.019, 1088.098 982.510, 1083.940 984.325 M 848.500 1049.669 C 773.038 1053.322, 702.671 1068.877, 682.422 1086.381 L 678.654 1089.638 677.644 1112.569 C 672.399 1231.569, 708.752 1338.417, 773.343 1393.845 C 811.976 1426.998, 871.118 1446.274, 953.055 1452.417 L 970.500 1453.725 951.829 1453.863 C 900.184 1454.243, 845.125 1444.652, 812.677 1429.623 C 803.261 1425.262, 804.185 1425.297, 802.572 1429.250 C 796.722 1443.591, 802.075 1456.124, 816.875 1462.732 C 865.533 1484.460, 970.077 1494.274, 1042.500 1483.912 C 1090.705 1477.015, 1124.623 1463.004, 1129.073 1448.151 C 1130.200 1444.388, 1129.056 1430.722, 1127.482 1429.148 C 1127.245 1428.912, 1123.328 1430.370, 1118.776 1432.388 C 1109.524 1436.491, 1095.299 1440.773, 1080.144 1444.018 C 1069.940 1446.203, 1063.679 1446.266, 1072 1444.100 C 1135.019 1427.698, 1187.809 1377.979, 1216.591 1307.921 C 1231.460 1271.726, 1244.202 1220.772, 1246.580 1187.996 C 1247.420 1176.415, 1247.460 1176.335, 1255.233 1170.454 C 1276.489 1154.371, 1299.134 1152.946, 1313.536 1166.785 C 1332.360 1184.873, 1330.088 1227.685, 1308.513 1261.411 C 1290.656 1289.328, 1266.707 1305.223, 1240.246 1306.721 C 1231.949 1307.191, 1229.708 1307.637, 1229.279 1308.906 C 1227.291 1314.788, 1218.841 1332.283, 1213.432 1341.716 C 1209.894 1347.884, 1207 1353.199, 1207 1353.527 C 1207 1355.484, 1242.942 1347.688, 1260.305 1341.964 C 1287.106 1333.129, 1304.138 1322.788, 1323.653 1303.500 C 1353.125 1274.372, 1368.318 1240.043, 1368.352 1202.500 C 1368.378 1174.354, 1360.741 1155.212, 1342.780 1138.411 C 1321.509 1118.513, 1286.010 1113.492, 1256.167 1126.161 C 1253.784 1127.172, 1251.450 1128, 1250.980 1128 C 1250.511 1128, 1249.985 1119.848, 1249.813 1109.883 L 1249.500 1091.767 1245.088 1087.854 C 1229.573 1074.093, 1188.245 1063.425, 1122 1056.080 C 1092.397 1052.798, 1035 1051.715, 1035 1054.439 C 1035 1055.996, 1035.360 1056.064, 1056.500 1058.533 C 1128.641 1066.957, 1166.894 1074.625, 1188.541 1085.001 C 1196.971 1089.041, 1202 1093.129, 1202 1095.940 C 1202 1101.628, 1182.990 1111.957, 1160.561 1118.455 C 1082.764 1140.994, 875.933 1141.771, 782.062 1119.876 C 752.990 1113.096, 729 1102.473, 729 1096.381 C 729 1086.161, 771.638 1071.821, 825.199 1064.025 C 851.553 1060.189, 903.609 1055, 915.734 1055 C 919.528 1055, 921 1054.617, 921 1053.629 C 921 1050.521, 878.663 1048.208, 848.500 1049.669 M 701.333 1121.473 C 725.500 1138.569, 779.600 1153.603, 832.500 1157.924 C 872.792 1161.214, 965.516 1162.884, 968.036 1160.364 C 968.762 1159.638, 960.301 1159.111, 940.290 1158.636 C 836.715 1156.177, 758.972 1144.572, 711.500 1124.484 C 697.046 1118.367, 696.867 1118.314, 701.333 1121.473 M 999 1560.563 C 982.003 1564.987, 962.047 1580.859, 953.816 1596.500 C 943.806 1615.524, 941.718 1637.232, 948.111 1655.826 C 950.374 1662.406, 956.026 1672.158, 957.326 1671.725 C 957.816 1671.561, 959.672 1667.844, 961.450 1663.464 C 971.007 1639.919, 976.324 1632.398, 999.946 1609 C 1010.219 1598.825, 1020.866 1587.459, 1023.605 1583.743 C 1029.303 1576.015, 1036.496 1563.163, 1035.616 1562.283 C 1032.696 1559.363, 1008.057 1558.206, 999 1560.563 M 1041.999 1566.250 C 1041.998 1568.237, 1032.426 1583.799, 1026.195 1591.944 C 1023.063 1596.039, 1013.750 1606.417, 1005.500 1615.008 C 997.250 1623.598, 987.960 1634.198, 984.856 1638.564 C 979.086 1646.678, 964 1672.301, 964 1673.988 C 964 1675.390, 973.406 1677.979, 983 1679.218 C 1013.287 1683.129, 1044.651 1658.632, 1053.696 1624 C 1056.519 1613.188, 1056.027 1593.569, 1052.679 1583.500 C 1048.795 1571.820, 1042.002 1560.848, 1041.999 1566.250 M 501 1607 L 501 1612 690.500 1612 L 880 1612 880 1607 L 880 1602 690.500 1602 L 501 1602 501 1607 M 1135 1607 L 1135 1612 1316 1612 L 1497 1612 1497 1607 L 1497 1602 1316 1602 L 1135 1602 1135 1607 M 340 1761.121 C 333.167 1763.837, 329.930 1771.264, 333.043 1777.080 C 334.327 1779.480, 339.970 1783.044, 346.128 1785.343 C 352.054 1787.557, 354.063 1789.753, 352.916 1792.765 C 351.010 1797.770, 340.745 1797.593, 337.406 1792.497 C 335.903 1790.203, 335.689 1790.158, 333.409 1791.652 C 330.169 1793.775, 330.376 1796.297, 334.045 1799.385 C 344.537 1808.212, 361 1803.042, 361 1790.919 C 361 1784.736, 358.701 1782.254, 349.937 1778.977 C 343.795 1776.680, 339 1773.589, 339 1771.927 C 339 1770.148, 343.018 1767, 345.289 1767 C 346.547 1767, 349.298 1767.877, 351.401 1768.949 C 354.918 1770.743, 355.416 1770.774, 357.612 1769.334 C 360.471 1767.461, 360.555 1766.812, 358.213 1764.693 C 353.700 1760.609, 345.388 1758.978, 340 1761.121 M 485.637 1761.465 C 466.958 1768.124, 467.700 1797.078, 486.690 1802.598 C 494.896 1804.984, 504.681 1802.189, 508.493 1796.371 C 509.858 1794.287, 509.775 1793.968, 507.373 1792.079 L 504.778 1790.037 501.161 1793.019 C 492.010 1800.562, 480.769 1794.414, 480.769 1781.866 C 480.769 1771.875, 488.392 1765.350, 496.463 1768.433 C 498.872 1769.353, 501.383 1770.757, 502.044 1771.553 C 503.627 1773.460, 504.987 1773.350, 507.947 1771.075 L 510.394 1769.194 506.900 1765.700 C 501.510 1760.310, 493.406 1758.695, 485.637 1761.465 M 1135.684 1761.449 C 1117.946 1767.775, 1115.863 1792.598, 1132.345 1801.233 C 1146.758 1808.783, 1164 1797.951, 1164 1781.346 C 1164 1766.658, 1149.549 1756.504, 1135.684 1761.449 M 380 1782.060 L 380 1803.121 383.639 1802.810 L 387.277 1802.500 387.389 1795.500 L 387.500 1788.500 393.500 1788.181 C 404.446 1787.600, 410.333 1782.815, 410.333 1774.500 C 410.333 1764.946, 404.323 1761.004, 389.750 1761.002 L 380 1761 380 1782.060 M 428 1782 L 428 1803 442 1803 L 456 1803 456 1799.500 L 456 1796 446 1796 L 436 1796 436 1790.500 L 436 1785 444.500 1785 L 453 1785 453 1781.500 L 453 1778 444.445 1778 L 435.890 1778 436.195 1773.250 L 436.500 1768.500 445.750 1768.212 C 454.036 1767.955, 455 1767.729, 455 1766.044 C 455 1765.010, 455.273 1763.452, 455.607 1762.582 C 456.143 1761.185, 454.560 1761, 442.107 1761 L 428 1761 428 1782 M 528 1782 L 528 1803 532 1803 L 536 1803 536 1782 L 536 1761 532 1761 L 528 1761 528 1782 M 569.686 1761.699 C 569.413 1762.141, 565.985 1770.603, 562.069 1780.502 C 558.153 1790.401, 554.520 1799.513, 553.996 1800.750 C 553.093 1802.881, 553.269 1803, 557.315 1803 C 561.431 1803, 561.643 1802.845, 563.134 1798.750 L 564.681 1794.500 573.691 1794.214 L 582.701 1793.929 584.433 1798.464 C 586.081 1802.779, 586.357 1803, 590.083 1803 C 592.237 1803, 594 1802.635, 594 1802.189 C 594 1801.743, 590.504 1792.406, 586.230 1781.439 L 578.460 1761.500 574.322 1761.197 C 572.046 1761.030, 569.960 1761.256, 569.686 1761.699 M 616.656 1780.250 C 612.495 1790.838, 608.797 1800.287, 608.438 1801.250 C 607.886 1802.731, 608.392 1803, 611.722 1803 C 615.384 1803, 615.791 1802.705, 617.579 1798.750 L 619.500 1794.500 628.417 1794.500 L 637.333 1794.500 638.750 1798.750 C 640.131 1802.892, 640.279 1803, 644.569 1803 L 648.971 1803 646.943 1797.750 C 645.828 1794.862, 642.122 1785.413, 638.708 1776.751 L 632.500 1761.003 628.361 1761.001 L 624.222 1761 616.656 1780.250 M 665.155 1782.028 L 665.070 1803.056 678.664 1802.778 L 692.259 1802.500 692.513 1799.250 L 692.767 1796 683.384 1796 L 674 1796 674 1778.500 L 674 1761 669.620 1761 L 665.239 1761 665.155 1782.028 M 709 1764.500 L 709 1768 719 1768 C 724.500 1768, 729 1768.273, 729 1768.607 C 729 1769.158, 719.909 1781.685, 711.360 1792.914 C 709.374 1795.523, 708 1798.488, 708 1800.164 L 708 1803 724.500 1803 L 741 1803 741 1799.500 L 741 1796 730 1796 C 723.950 1796, 719 1795.777, 719 1795.505 C 719 1795.233, 721.179 1792.306, 723.842 1789.001 C 732.845 1777.828, 739.772 1767.516, 740.467 1764.250 L 741.159 1761 725.079 1761 L 709 1761 709 1764.500 M 769.980 1765.750 C 766.988 1772.474, 756 1801.058, 756 1802.118 C 756 1802.603, 757.739 1803, 759.864 1803 C 763.523 1803, 763.820 1802.760, 765.447 1798.500 L 767.165 1794 775.864 1794 L 784.562 1794 786.031 1798.250 C 787.418 1802.263, 787.737 1802.517, 791.750 1802.807 C 794.087 1802.977, 796 1802.684, 796 1802.157 C 796 1801.401, 785.595 1774.465, 780.971 1763.250 C 780.228 1761.450, 779.249 1761, 776.068 1761 C 772.290 1761, 771.989 1761.235, 769.980 1765.750 M 824.028 1766.750 C 822.791 1769.912, 819.622 1778.125, 816.986 1785 C 814.350 1791.875, 811.711 1798.737, 811.121 1800.250 C 810.051 1802.995, 810.057 1803, 814.441 1803 C 818.719 1803, 818.870 1802.890, 820.250 1798.750 L 821.667 1794.500 830.500 1794.500 L 839.333 1794.500 840.750 1798.750 C 842.129 1802.886, 842.284 1803, 846.539 1803 L 850.911 1803 849.421 1798.750 C 848.602 1796.412, 844.976 1786.963, 841.363 1777.750 L 834.795 1761 830.536 1761 C 826.279 1761, 826.277 1761.002, 824.028 1766.750 M 868 1782 L 868 1803 872 1803 L 876 1803 876.005 1796.750 C 876.009 1791.564, 876.434 1789.990, 878.501 1787.500 C 881.394 1784.016, 880.768 1783.509, 888.276 1795.422 L 893.053 1803 897.641 1803 L 902.230 1803 900.464 1800.250 C 899.493 1798.737, 895.844 1793.295, 892.355 1788.156 L 886.012 1778.812 893.506 1770.667 C 897.628 1766.188, 901 1762.181, 901 1761.762 C 901 1761.343, 898.862 1761.010, 896.250 1761.023 C 891.509 1761.045, 891.487 1761.061, 884.582 1769.523 C 880.777 1774.185, 877.290 1778, 876.832 1778 C 876.374 1778, 876 1774.175, 876 1769.500 L 876 1761 872 1761 L 868 1761 868 1782 M 962 1782 L 962 1803 966 1803 L 970 1803 970 1782 L 970 1761 966 1761 L 962 1761 962 1782 M 991 1782 L 991 1803 995 1803 L 999 1803 999 1789 C 999 1781.300, 999.337 1775.023, 999.750 1775.051 C 1000.163 1775.079, 1004.550 1781.267, 1009.500 1788.801 L 1018.500 1802.500 1022.750 1802.807 L 1027 1803.115 1027 1782.057 L 1027 1761 1023 1761 L 1019 1761 1019 1775 C 1019 1782.700, 1018.663 1788.998, 1018.250 1788.995 C 1017.837 1788.992, 1013.450 1782.712, 1008.500 1775.038 L 999.500 1761.086 995.250 1761.043 L 991 1761 991 1782 M 1074.156 1778.935 C 1073.714 1801.916, 1073.936 1803, 1079.079 1803 L 1083 1803 1083 1796.965 C 1083 1791.377, 1084.929 1786, 1086.934 1786 C 1087.321 1786, 1090.263 1789.825, 1093.471 1794.500 L 1099.304 1803 1104.152 1803 C 1108.597 1803, 1110.324 1801.937, 1108.107 1800.566 C 1107.089 1799.937, 1093 1780.151, 1093 1779.351 C 1093 1779.064, 1096.422 1774.930, 1100.605 1770.164 L 1108.209 1761.500 1103.864 1761.181 C 1099.113 1760.832, 1099.188 1760.772, 1087.748 1773.983 L 1083 1779.466 1083 1770.233 L 1083 1761 1078.750 1761.003 L 1074.500 1761.006 1074.156 1778.935 M 1182.092 1782 L 1181.880 1803 1186.304 1803 C 1190.644 1803, 1190.727 1802.938, 1190.653 1799.750 C 1190.611 1797.963, 1190.673 1794.156, 1190.789 1791.290 L 1191 1786.081 1199.250 1785.790 L 1207.500 1785.500 1207.813 1782.250 L 1208.127 1779 1199.563 1779 L 1191 1779 1191 1773.500 L 1191 1768 1201 1768 L 1211 1768 1211 1764.500 L 1211 1761 1196.651 1761 L 1182.303 1761 1182.092 1782 M 1228 1782 L 1228 1803 1232 1803 L 1236 1803 1236.014 1796.750 C 1236.037 1785.882, 1235.932 1786, 1245.617 1786 L 1254 1786 1254 1782.500 L 1254 1779 1245.500 1779 L 1237 1779 1237 1773.500 L 1237 1768 1246.500 1768 L 1256 1768 1256 1764.500 L 1256 1761 1242 1761 L 1228 1761 1228 1782 M 1275 1782 L 1275 1803 1279 1803 L 1283 1803 1283 1782 L 1283 1761 1279 1761 L 1275 1761 1275 1782 M 1304 1782 L 1304 1803 1318 1803 L 1332 1803 1332 1799.536 L 1332 1796.072 1322.250 1795.786 L 1312.500 1795.500 1312.500 1790.500 L 1312.500 1785.500 1320.750 1785.210 L 1329 1784.919 1329 1781.460 L 1329 1778 1321.019 1778 C 1313.430 1778, 1313.009 1777.882, 1312.436 1775.602 C 1310.810 1769.121, 1311.599 1768.526, 1322.250 1768.214 L 1332 1767.928 1332 1764.464 L 1332 1761 1318 1761 L 1304 1761 1304 1782 M 1378 1782 L 1378 1803 1392 1803 L 1406 1803 1406 1799.500 L 1406 1796 1396 1796 L 1386 1796 1386 1790.500 L 1386 1785 1394.500 1785 L 1403 1785 1403 1781.500 L 1403 1778 1394.500 1778 L 1386 1778 1386 1773 L 1386 1768 1396 1768 L 1406 1768 1406 1764.500 L 1406 1761 1392 1761 L 1378 1761 1378 1782 M 1425 1782 L 1425 1803 1429.111 1803 C 1433.195 1803, 1433.219 1802.978, 1432.677 1799.750 C 1432.376 1797.963, 1432.439 1791.558, 1432.815 1785.518 L 1433.500 1774.535 1442.784 1788.768 L 1452.068 1803 1456.034 1803 L 1460 1803 1460 1782 L 1460 1761 1456.500 1761 L 1453 1761 1452.912 1770.750 C 1452.864 1776.112, 1452.527 1782.680, 1452.162 1785.345 L 1451.500 1790.190 1445 1779.519 C 1434.024 1761.501, 1433.591 1761, 1428.994 1761 L 1425 1761 1425 1782 M 1502 1764.450 L 1502 1767.900 1507.750 1768.200 L 1513.500 1768.500 1513.774 1785.750 L 1514.047 1803 1518 1803 L 1521.953 1803 1522.226 1785.750 L 1522.500 1768.500 1528.250 1768.200 L 1534 1767.900 1534 1764.450 L 1534 1761 1518 1761 L 1502 1761 1502 1764.450 M 1551 1782 L 1551 1803 1554.961 1803 L 1558.922 1803 1559.211 1794.250 L 1559.500 1785.500 1568.250 1785.211 L 1577 1784.922 1577 1793.961 L 1577 1803 1581 1803 L 1585 1803 1585 1782 L 1585 1761 1581 1761 L 1577 1761 1577 1769.539 L 1577 1778.078 1568.250 1777.789 L 1559.500 1777.500 1559.210 1769.250 L 1558.919 1761 1554.960 1761 L 1551 1761 1551 1782 M 1605 1782 L 1605 1803 1619.500 1803 L 1634 1803 1634 1799.500 L 1634 1796 1624 1796 L 1614 1796 1614 1790.500 L 1614 1785 1622.500 1785 L 1631 1785 1631 1781.500 L 1631 1778 1622.500 1778 L 1614 1778 1614 1773 L 1614 1768 1623.500 1768 L 1633 1768 1633 1764.500 L 1633 1761 1619 1761 L 1605 1761 1605 1782 M 1652.007 1775.250 C 1652.011 1783.088, 1652.301 1792.537, 1652.652 1796.250 L 1653.289 1803 1666.645 1803 L 1680 1803 1680 1799.536 L 1680 1796.072 1670.250 1795.786 L 1660.500 1795.500 1660.500 1790.500 L 1660.500 1785.500 1668.882 1785 L 1677.264 1784.500 1677.516 1781.250 L 1677.767 1778 1668.829 1778 L 1659.890 1778 1660.195 1773.250 L 1660.500 1768.500 1670.250 1768.214 L 1680 1767.928 1680 1764.464 L 1680 1761 1666 1761 L 1652 1761 1652.007 1775.250 M 1139 1768.083 C 1132.023 1770.962, 1128.046 1778.744, 1129.946 1785.798 C 1133.339 1798.401, 1149.660 1800.043, 1154.638 1788.282 C 1159.404 1777.022, 1149.218 1763.866, 1139 1768.083 M 388 1775.114 L 388 1782.227 392.750 1781.515 C 398.880 1780.596, 400.838 1779.495, 401.577 1776.550 C 402.993 1770.908, 399.860 1768.041, 392.250 1768.015 L 388 1768 388 1775.114 M 570.630 1778.407 C 569.183 1782.481, 568 1786.081, 568 1786.407 C 568 1786.733, 570.737 1787, 574.083 1787 C 578.556 1787, 580.031 1786.669, 579.655 1785.750 C 579.373 1785.063, 578.122 1781.463, 576.875 1777.750 C 575.627 1774.037, 574.303 1771, 573.933 1771 C 573.562 1771, 572.076 1774.333, 570.630 1778.407 M 627.320 1772.750 C 626.980 1773.713, 625.645 1777.165, 624.351 1780.422 C 623.058 1783.680, 622 1786.492, 622 1786.672 C 622 1786.853, 624.700 1787, 628 1787 C 631.300 1787, 634 1786.733, 634 1786.407 C 634 1785.305, 628.744 1771, 628.339 1771 C 628.118 1771, 627.659 1771.787, 627.320 1772.750 M 772.726 1778.331 C 771.227 1782.363, 770 1785.963, 770 1786.331 C 770 1786.699, 772.737 1787, 776.083 1787 C 780.556 1787, 782.031 1786.669, 781.655 1785.750 C 781.373 1785.063, 780.122 1781.463, 778.875 1777.750 C 777.627 1774.037, 776.347 1771, 776.029 1771 C 775.712 1771, 774.226 1774.299, 772.726 1778.331 M 828.127 1776.390 C 824.045 1787.300, 823.981 1787, 830.392 1787 C 836.858 1787, 836.710 1787.375, 833.667 1778.672 C 830.619 1769.957, 830.545 1769.927, 828.127 1776.390" stroke="none" fill="#6B8A67" fill-rule="evenodd"/>
</svg>